<?xml version="1.0" encoding="UTF-8"?><svg xmlns="http://www.w3.org/2000/svg" xmlns:xlink="http://www.w3.org/1999/xlink" viewBox="0 0 1450 1155.21"><defs><style>.e{fill:url(#d);}.f{opacity:.32;}.f,.g{fill:#2a657a;}.f,.g,.h{mix-blend-mode:screen;}.g{opacity:.72;}.h{fill:#2d3477;opacity:.16;}.i{opacity:.67;}.j{isolation:isolate;}</style><linearGradient id="d" x1="73.83" y1="1386.59" x2="1155.95" y2="42.22" gradientTransform="matrix(1, 0, 0, 1, 0, 0)" gradientUnits="userSpaceOnUse"><stop offset=".09" stop-color="#17000f"/><stop offset="1" stop-color="#4a2647"/></linearGradient></defs><g class="j"><g id="a"/><g id="b"><g id="c"><g><rect class="e" width="1450" height="1155.21"/><g><path class="h" d="M1450,951.33c-78.25,43.73-185.78,78.64-282.83,15.9-175.48-113.45-364.51-233.45-584.56-188.23-220.04,45.22-272.15,207.41-437.94,201.39-50.52-1.84-99.9-12.08-144.68-26.45v118.11c73.43,17.1,186.46,20.06,348.67-32.74,335.02-109.05,754.55-49.88,944.45,40.55,53.21,25.34,106.89,28.9,156.88,20.38v-148.9Z"/><path class="h" d="M1255.53,816.83c-215.6-83.62-381.68-283.48-575.96-249.86-194.27,33.62-369.1,184.33-504.74,154.19-60.13-13.36-123.22-52.79-174.83-92.54v67.67c45.21,21.1,114.54,42.95,211,45.97,192.92,6.03,366.61-209.83,668.04-98.3,301.43,111.53,432.44,270.12,570.96,230.93v-44.34c-44.39,16.36-107.52,20.02-194.47-13.72Z"/><path class="h" d="M1450,194.44c-43.6,31.45-105,62.54-142.34,24.3-62.76-64.27-107.98-205.94-300.89-178.81-192.91,27.13-566.69,207.98-738.5,177.84C153.65,197.66,53.78,101.08,0,39.02V252.91c81.55,7.1,261.62,14.17,441.74-36.17,243.52-68.07,686.68-199.84,785.61-24.05,63.12,112.17,155.92,157.67,222.65,157.91V194.44Z"/></g><g class="i"><path class="g" d="M81.66,513.69c-3.74-4.3-5.04-8.88-5.08-28.35,0-1.86,0-3.11-.02-3.75v3.75c-.03,19.47-1.31,24.06-5.11,28.4-4.3,3.74-8.89,5.02-28.38,5.07-2.23,.01-3.58,.01-4.06,.02,.48,0,1.83,0,4.06,0,19.49,.03,24.09,1.31,28.44,5.1,3.74,4.28,5.02,8.87,5.08,28.33,.01,2.67,.01,4.09,.01,4.25,0-.16,0-1.58,.01-4.25,.03-19.47,1.32-24.06,5.1-28.4,4.3-3.74,8.9-5.03,28.38-5.07,1.82,0,3.04-.01,3.7-.01-.66,0-1.88,0-3.7,0-19.48-.03-24.08-1.31-28.43-5.1Z"/><path class="g" d="M571.45,728.93c-3.74-4.3-5.03-8.88-5.08-28.35,0-1.86,0-3.11-.02-3.75v3.75c-.03,19.47-1.31,24.05-5.1,28.4-4.3,3.73-8.89,5.02-28.38,5.06-2.23,.01-3.58,.01-4.06,.02,.48,0,1.83,0,4.06,.01,19.49,.03,24.09,1.3,28.44,5.1,3.74,4.29,5.02,8.87,5.08,28.34,.01,2.67,.01,4.09,.01,4.25,0-.16,0-1.58,0-4.25,.03-19.47,1.32-24.06,5.1-28.4,4.3-3.74,8.89-5.03,28.38-5.07,1.82,0,3.04-.02,3.7-.02h-3.7c-19.48-.04-24.08-1.32-28.43-5.1Z"/><path class="g" d="M159.62,86.61c-3.74-4.3-5.03-8.88-5.08-28.35,0-1.86,0-3.11-.02-3.75v3.75c-.03,19.47-1.32,24.06-5.11,28.4-4.3,3.74-8.89,5.02-28.38,5.07-2.23,.01-3.58,.01-4.06,.02,.48,0,1.83,0,4.06,0,19.49,.03,24.09,1.31,28.44,5.1,3.74,4.28,5.02,8.87,5.08,28.33,.01,2.67,.01,4.09,.01,4.25,0-.16,0-1.58,0-4.25,.03-19.47,1.32-24.06,5.1-28.4,4.3-3.74,8.89-5.03,28.38-5.07,1.82,0,3.04-.01,3.7-.01-.66,0-1.89,0-3.7,0-19.48-.03-24.08-1.31-28.43-5.1Z"/><path class="g" d="M1367.99,86.61c-3.74-4.3-5.04-8.88-5.08-28.35,0-1.86,0-3.11-.02-3.75v3.75c-.03,19.47-1.32,24.06-5.1,28.4-4.3,3.74-8.89,5.02-28.39,5.07-2.23,.01-3.58,.01-4.06,.02,.48,0,1.83,0,4.06,0,19.49,.03,24.1,1.31,28.44,5.1,3.74,4.28,5.02,8.87,5.07,28.33,.02,2.67,.02,4.09,.02,4.25,0-.16,0-1.58,0-4.25,.02-19.47,1.31-24.06,5.1-28.4,4.3-3.74,8.89-5.03,28.38-5.07,1.82,0,3.04-.01,3.7-.01-.66,0-1.89,0-3.7,0-19.49-.03-24.08-1.31-28.43-5.1Z"/><path class="g" d="M435.87,91.7c-3.74-4.3-5.04-8.88-5.08-28.35,0-1.86,0-3.11-.02-3.75v3.75c-.03,19.47-1.32,24.06-5.11,28.4-4.3,3.74-8.89,5.02-28.38,5.07-2.23,.01-3.58,.01-4.06,.02,.48,0,1.83,0,4.06,0,19.49,.03,24.09,1.31,28.44,5.1,3.74,4.28,5.02,8.87,5.08,28.33,.01,2.67,.01,4.09,.01,4.25,0-.16,0-1.58,.01-4.25,.03-19.47,1.32-24.06,5.1-28.4,4.3-3.74,8.9-5.03,28.37-5.07,1.82,0,3.04-.01,3.71-.01-.66,0-1.89,0-3.71,0-19.48-.03-24.08-1.31-28.43-5.1Z"/><path class="g" d="M950.66,498.05c-3.74-4.29-5.04-8.88-5.08-28.35,0-1.86,0-3.11-.02-3.75v3.75c-.02,19.47-1.31,24.06-5.11,28.4-4.3,3.74-8.89,5.02-28.38,5.07-2.23,.01-3.58,.01-4.06,.02,.48,0,1.83,0,4.06,0,19.49,.03,24.09,1.31,28.43,5.1,3.74,4.28,5.03,8.87,5.08,28.33,0,2.67,0,4.09,0,4.25,0-.16,0-1.58,.01-4.25,.03-19.47,1.32-24.06,5.1-28.4,4.3-3.74,8.9-5.03,28.38-5.07,1.82,0,3.04-.01,3.71-.01-.67,0-1.89,0-3.71,0-19.48-.03-24.08-1.32-28.43-5.1Z"/><path class="g" d="M984.77,354.86c-3.23-3.71-4.35-7.67-4.39-24.49,0-1.61,0-2.69-.01-3.24v3.24c-.02,16.82-1.14,20.78-4.41,24.54-3.71,3.23-7.68,4.34-24.52,4.38-1.93,0-3.09,0-3.51,.02,.42,0,1.58,0,3.51,0,16.84,.02,20.82,1.13,24.57,4.41,3.23,3.7,4.34,7.66,4.39,24.48,0,2.31,0,3.53,0,3.67,0-.14,0-1.37,.01-3.67,.02-16.82,1.14-20.78,4.41-24.53,3.72-3.23,7.68-4.34,24.52-4.38,1.57,0,2.62,0,3.2,0-.58,0-1.63,0-3.2,0-16.84-.03-20.8-1.14-24.57-4.4Z"/><path class="f" d="M469.37,404.87c-2.56-2.93-3.44-6.07-3.47-19.35,0-1.27,0-2.12-.01-2.56v2.56c-.02,13.29-.9,16.42-3.49,19.39-2.93,2.55-6.07,3.43-19.38,3.46-1.52,0-2.45,0-2.77,.01,.33,0,1.25,0,2.77,0,13.3,.02,16.45,.89,19.41,3.48,2.55,2.92,3.43,6.06,3.47,19.35,0,1.82,0,2.79,0,2.9,0-.11,0-1.08,0-2.9,.02-13.29,.9-16.42,3.48-19.39,2.94-2.55,6.07-3.43,19.37-3.46,1.24,0,2.08,0,2.53,0-.45,0-1.29,0-2.53,0-13.3-.02-16.44-.9-19.41-3.48Z"/><path class="f" d="M1355.73,411.83c-2.55-2.93-3.44-6.06-3.46-19.35,0-1.27,0-2.12-.02-2.56v2.56c-.02,13.29-.9,16.42-3.48,19.39-2.94,2.55-6.07,3.43-19.38,3.46-1.53,0-2.45,0-2.77,.01,.33,0,1.25,0,2.77,0,13.31,.02,16.45,.89,19.41,3.48,2.55,2.93,3.43,6.06,3.46,19.35,0,1.82,0,2.79,0,2.9,0-.11,0-1.08,.01-2.9,.02-13.29,.9-16.43,3.48-19.39,2.94-2.55,6.07-3.43,19.37-3.46,1.25,0,2.08,0,2.53,0-.45,0-1.28,0-2.53,0-13.3-.02-16.44-.9-19.41-3.48Z"/><path class="f" d="M1389.63,693.16c-2.56-2.93-3.44-6.06-3.47-19.35,0-1.27,0-2.12,0-2.56v2.56c-.02,13.29-.9,16.43-3.49,19.39-2.93,2.55-6.07,3.43-19.38,3.46-1.52,.01-2.45,.01-2.77,.01,.32,0,1.25,0,2.77,0,13.31,.02,16.45,.9,19.41,3.48,2.55,2.93,3.43,6.06,3.47,19.34,.01,1.82,.01,2.79,.01,2.9,0-.11,0-1.08,0-2.9,.02-13.29,.9-16.42,3.48-19.39,2.94-2.56,6.07-3.43,19.38-3.47,1.24,0,2.08,0,2.53,0-.45,0-1.29,0-2.53,0-13.3-.02-16.44-.9-19.41-3.48Z"/><path class="f" d="M876.11,988.06c-2.55-2.94-3.44-6.07-3.47-19.36,0-1.27,0-2.12-.02-2.56v2.56c-.01,13.29-.9,16.42-3.49,19.39-2.93,2.55-6.07,3.43-19.38,3.46-1.52,0-2.44,0-2.77,.01,.33,0,1.25,0,2.77,0,13.31,.02,16.45,.89,19.42,3.49,2.55,2.93,3.43,6.05,3.46,19.34,0,1.82,0,2.8,0,2.9,0-.11,0-1.08,0-2.9,.02-13.29,.9-16.42,3.48-19.39,2.94-2.55,6.08-3.43,19.38-3.47,1.24,0,2.08,0,2.53,0-.45,0-1.29,0-2.53,0-13.3-.02-16.44-.9-19.41-3.47Z"/><path class="f" d="M1356.24,1091.45c-2.55-2.94-3.44-6.06-3.47-19.35,0-1.27,0-2.12-.01-2.56v2.56c-.02,13.29-.9,16.42-3.48,19.39-2.94,2.55-6.07,3.43-19.38,3.46-1.52,0-2.44,0-2.77,.01,.33,0,1.25,0,2.77,0,13.31,.02,16.45,.9,19.41,3.48,2.55,2.93,3.43,6.06,3.46,19.35,0,1.82,0,2.79,0,2.9,0-.11,0-1.08,0-2.9,.02-13.29,.9-16.43,3.49-19.39,2.94-2.55,6.07-3.43,19.37-3.46,1.25,0,2.08,0,2.53,0-.45,0-1.28,0-2.53,0-13.3-.02-16.43-.9-19.41-3.48Z"/><path class="f" d="M998.65,779.61c-2.55-2.93-3.44-6.06-3.47-19.35,0-1.27,0-2.12-.01-2.56v2.56c-.02,13.29-.9,16.43-3.49,19.39-2.93,2.55-6.07,3.43-19.37,3.46-1.52,0-2.44,0-2.78,0,.33,0,1.25,0,2.78,0,13.3,.02,16.44,.89,19.41,3.48,2.56,2.92,3.43,6.06,3.47,19.34,0,1.83,0,2.8,0,2.9,0-.11,0-1.08,0-2.9,.01-13.29,.9-16.42,3.48-19.38,2.93-2.56,6.07-3.43,19.37-3.46,1.24,0,2.08-.02,2.53-.02-.45,0-1.29,0-2.53,0-13.3-.02-16.44-.9-19.41-3.48Z"/><path class="f" d="M498.69,1054.16c-2.56-2.93-3.44-6.06-3.47-19.35,0-1.27,0-2.12-.01-2.56v2.56c-.02,13.29-.9,16.43-3.49,19.39-2.93,2.55-6.07,3.43-19.38,3.46-1.52,.01-2.44,.01-2.77,.01,.33,0,1.25,0,2.77,0,13.31,.02,16.45,.89,19.42,3.48,2.55,2.92,3.43,6.05,3.47,19.34,0,1.83,0,2.79,0,2.9,0-.11,0-1.08,0-2.9,.02-13.29,.9-16.42,3.48-19.39,2.94-2.55,6.07-3.43,19.37-3.47,1.24,0,2.08,0,2.53,0h-2.53c-13.3-.02-16.44-.9-19.41-3.48Z"/><path class="f" d="M119.06,418.62c-2.55-2.93-3.44-6.07-3.47-19.35,0-1.27,0-2.12-.01-2.56v2.56c-.02,13.29-.9,16.42-3.49,19.39-2.93,2.55-6.07,3.43-19.37,3.46-1.52,0-2.45,0-2.77,.01,.33,0,1.25,0,2.77,0,13.3,.02,16.45,.89,19.41,3.48,2.55,2.92,3.43,6.06,3.46,19.34,0,1.82,0,2.79,0,2.9,0-.11,0-1.08,0-2.9,.02-13.29,.9-16.42,3.49-19.38,2.93-2.55,6.07-3.43,19.37-3.46,1.24,0,2.08,0,2.53,0-.45,0-1.29,0-2.53,0-13.3-.02-16.44-.9-19.41-3.48Z"/></g></g></g></g></g></svg>