<svg id="Layer_5" data-name="Layer 5" xmlns="http://www.w3.org/2000/svg" viewBox="0 0 2254.47 3270.49"><defs><style>.cls-1{fill:#bc9f93;}.cls-2{fill:#ffc19f;}.cls-3{fill:#fa0;}.cls-4{opacity:0.11;}.cls-5{fill:#9dcecc;}.cls-6{fill:#2d8f91;}.cls-7{fill:#19555b;}.cls-8{fill:#d3dae5;}.cls-9{fill:#dd4e07;}.cls-10{opacity:0.22;}.cls-11,.cls-13{fill:#fff;}.cls-11{opacity:0.44;}.cls-12{fill:#7c0505;opacity:0.19;}.cls-14{fill:#8db8d8;}.cls-15{fill:#223a49;}.cls-16{fill:#050505;opacity:0.12;}.cls-17{fill:#ff5b00;}.cls-18{fill:#d63707;}.cls-19{fill:#701605;opacity:0.2;}.cls-20{fill:#f4b18c;}.cls-21{fill:#000835;}.cls-22{fill:#e0956c;}.cls-23{fill:#701608;}.cls-24{fill:#dd6b5b;}.cls-25{fill:#c4735b;}.cls-26{fill:#f9feff;}.cls-27{fill:#773220;}.cls-28{fill:#63190d;}.cls-29{fill:#fefffe;}.cls-30{fill:#6b1808;opacity:0.14;}.cls-31{fill:#541000;opacity:0.21;}</style></defs><path class="cls-1" d="M1035.71,300.21a3.44,3.44,0,0,1-3.4-2.63c-.75-4.79-11.17-20.41-114.51-21.15a3.15,3.15,0,1,1,0-6.29c77.47.26,118.15,9.44,120.81,26.45A3.39,3.39,0,0,1,1035.71,300.21Z"/><path class="cls-1" d="M3.53,459.81a3.44,3.44,0,0,1-3.4-2.63c-6.67-43.33,253.34-110.07,508.53-149.51a3.15,3.15,0,1,1,1,6.23C202.79,361.34,1.73,425.79,6.43,456.19A3.38,3.38,0,0,1,3.53,459.81Z"/><path class="cls-2" d="M576.28,1146.53c-7.15-8.2,88.38-89.36,96.13-81.74C789.64,1180,1004.93,1324,1040,1354.45c-46.44,49.38-132.35,83.4-189.64,67C796.74,1406,683.75,1269.84,576.28,1146.53Z"/><path class="cls-3" d="M919.19,1251.81c-6.14,61.69-.12,196.67,4.72,269,142.82,14.09,249.24,11.4,258.56,6.87,97-47.15,96.17-269.74,99.89-282.72C1211.05,1248.44,1056.77,1251.73,919.19,1251.81Z"/><path class="cls-4" d="M782.1,3218.81c0,28.54,312.18,51.68,697.27,51.68s697.27-23.14,697.27-51.68-312.18-51.67-697.27-51.67S782.1,3190.28,782.1,3218.81Z"/><path class="cls-2" d="M1637,3094.05c.51,5.45,177.85-1.28,178.1-7.91,2.12-57.67-.37-819.82.24-853.26l-253.08,79C1569.21,2369,1633.33,3054.67,1637,3094.05Z"/><path class="cls-5" d="M1621.1,3114.42c.38,4.22,225.66,4.51,226.3-.81,4.8-39.44,1.36-134.08,3.45-157H1612.37C1616.06,2999.4,1618.71,3087.32,1621.1,3114.42Z"/><path class="cls-6" d="M1890.55,3054c-3-12-9.51-27.31-14.48-41.27-3.68-10.35-104.3-10.67-105.07,14a150.49,150.49,0,0,0,.38,17c-17.22-.17-35.87-.74-55.57-1.85-42.82-2.39-81.17-6.62-108-11.44-2.51,39-.42,106.77-2.85,150.17,0,0,447.09,92.77,519.07,29.07C2144.29,3191.71,2033.22,3108,1890.55,3054Z"/><path class="cls-7" d="M1605.86,3153.37c-.2,9.66-.47,19-.93,27.22,0,0,447.09,92.77,519.07,29.07,2.86-2.53,3.06-6.39,1-11.27C2000.65,3222.84,1717.06,3174.32,1605.86,3153.37Z"/><path class="cls-8" d="M1921.73,3067.21a6.28,6.28,0,1,0,2.94-12.22c-26-6.17-56.55,5.3-74.43,28.06a6.28,6.28,0,1,0,9.88,7.75C1875.07,3071.77,1900.4,3062,1921.73,3067.21Zm34.19,16.54c3.39.71,6.6-1.93,7.07-5.38a6.27,6.27,0,0,0-5.39-7c-27.41-3.77-54.74,6-75,26.62a6.28,6.28,0,0,0,9,8.82C1915.46,3082.43,1942.12,3081.89,1955.92,3083.75Zm37.79,5.76c-24.67-4.78-56.74,6-78.12,26.06a6.29,6.29,0,0,0,8.61,9.16c18.62-17.49,46.33-27.2,67.14-22.89a6.18,6.18,0,0,0,7.35-5A6.28,6.28,0,0,0,1993.71,3089.51Z"/><path class="cls-2" d="M1321.43,3094.05c-.52,5.45-177.86-1.28-178.11-7.91-2.12-57.67.37-819.82-.24-853.26l253.09,79C1389.25,2369,1325.13,3054.67,1321.43,3094.05Z"/><path class="cls-5" d="M1337.36,3114.42c-.37,4.22-225.65,4.51-226.3-.81-4.8-39.44-1.35-134.08-3.45-157H1346.1C1342.4,2999.4,1339.75,3087.32,1337.36,3114.42Z"/><path class="cls-6" d="M1067.91,3054c3-12,9.51-27.31,14.48-41.27,3.69-10.35,104.31-10.67,105.07,14a148.33,148.33,0,0,1-.37,17c17.21-.17,35.87-.74,55.56-1.85,42.83-2.39,81.17-6.62,108-11.44,2.51,39,.41,106.77,2.84,150.17,0,0-447.08,92.77-519.07,29.07C814.18,3191.71,925.24,3108,1067.91,3054Z"/><path class="cls-7" d="M1352.61,3153.37c.19,9.66.46,19,.92,27.22,0,0-447.08,92.77-519.07,29.07-2.86-2.53-3.06-6.39-1-11.27C957.82,3222.84,1241.41,3174.32,1352.61,3153.37Z"/><path class="cls-8" d="M1098.35,3090.8a6.27,6.27,0,1,0,9.87-7.75c-17.88-22.76-48.48-34.23-74.43-28.06a6.29,6.29,0,0,0,3,12.22C1058.06,3062,1083.4,3071.77,1098.35,3090.8Zm-31.42,16a6.22,6.22,0,0,0,4.82,1.86,6.27,6.27,0,0,0,4.13-10.68c-20.28-20.62-47.6-30.39-75-26.62a6.27,6.27,0,0,0-5.38,7,6.12,6.12,0,0,0,7.06,5.38C1016.34,3081.89,1043,3082.43,1066.93,3106.76Zm-107.16-9.91a6.19,6.19,0,0,0,7.36,5c20.81-4.31,48.52,5.4,67.13,22.89a6.29,6.29,0,1,0,8.61-9.16c-21.38-20.07-53.44-30.84-78.11-26.06A6.27,6.27,0,0,0,959.77,3096.85Z"/><path class="cls-9" d="M1084.62,2527.5c35.43,9.36,274.42,17.26,321,17.9,9.47-98.41,19.7-144.44,37.92-270.87,5.14-35.67,51.19-37.92,58-.79,4.25,23.13,26.78,129.88,45.12,271.66,75.19,4.09,261.4-9.93,326.53-26.1,0,0-43.44-537.38-55.71-681.18-126.71-14.3-559.07-13.95-695.32,1.88C1108.4,1974.19,1095.54,2320.06,1084.62,2527.5Z"/><path class="cls-10" d="M1827.15,2059.2c-6.29-106.27-11.13-189.86-12.92-224.49-126.71-14.3-555.72-14.17-692,1.66-7.46,46.74-12.8,155.72-17.2,288.83C1290.93,2195.36,1595.3,2167.6,1827.15,2059.2Z"/><path class="cls-3" d="M1074.64,2034.45c182.22,122.31,540.46,134,775.36,36.92,0,0-16-628.4-36.91-776.48-158.33-50-497.47-60.17-644.15-43.88C1137.05,1436.52,1115.32,1760.08,1074.64,2034.45Z"/><path class="cls-11" d="M1607,1701q7.55,5.1,3.8,45c-2.5,26.61-6.3,45.25-11.63,55.84q-3.62,7.17-52.17,7.58-3.55,28.92-7.37,48.6t-7.35,24.23q-5.17,9-45.49,8.75c-26.87-.15-45.68-3.26-56.67-8.84-3.22-1.63-5.6-9.5-7.11-23.76s-2.43-32-2.8-53.36q-42.43-2.8-74.17-4.26t-34.43-4.42q-8.81-8.25-11.72-47.65c-1.93-26.27-.13-45.28,5.54-57,12.16-25,32.42-51.29,60.44-79.07s51.55-49.91,70.46-66.53q9.92-8.72,30.42-12.44a171.33,171.33,0,0,1,41.15-2.46q20.64,1.24,36.52,7.6t16.52,17.49q1.14,24.89.19,60.67t-3.33,74.46Q1600.92,1695.52,1607,1701Zm-145.78,11.47q2.29-3.43,1.43-21.81t-3.79-16.62q-6.24,1.58-20.11,14.49t-14.18,18.81q-.21,4.25,17.83,5.38T1461.24,1712.5Z"/><path class="cls-9" d="M1673.25,1293.48c1-9.43-.09-18.63-1.84-27.73-96.69-12.19-242.37-22.76-346.82-20.51-1,4-3,7.75-3.42,12-7.52,72.92,65.2,140.16,162.43,150.18S1665.73,1366.41,1673.25,1293.48Z"/><path class="cls-2" d="M1633.25,1087.88,1619,1294.28c-3.06,44.37-62,76.47-131.53,71.67s-123.5-44.68-120.44-89l14.23-206.39Z"/><path class="cls-12" d="M1632.85,1170.25c-.77-7.81-3.15-15.1-6.07-22.19-80.47,6-200.41,21.48-284.8,40.53-.17,3.44-1.15,6.78-.8,10.27,5.92,60.42,76,103,156.56,95.09S1638.77,1230.67,1632.85,1170.25Z"/><path class="cls-13" d="M1658.93,1699.26c-77.66,154.57-15.31,342.85,139.27,420.51s342.86,15.31,420.52-139.27S2234,1637.65,2079.45,1560,1736.6,1544.67,1658.93,1699.26Z"/><path class="cls-14" d="M1938.31,2155.53A313.67,313.67,0,0,1,1797.1,2122c-155.54-78.15-218.5-268.27-140.35-423.8a315.66,315.66,0,0,1,423.8-140.36c155.54,78.14,218.5,268.26,140.36,423.8C2165.54,2091.79,2054,2155.53,1938.31,2155.53Zm.82-626.6a311.66,311.66,0,0,0-278,171.42c-76.93,153.13-14.95,340.3,138.18,417.24s340.3,14.95,417.24-138.18,14.94-340.31-138.19-417.24A309.45,309.45,0,0,0,1939.13,1528.93Z"/><polygon class="cls-15" points="2016.68 1904 1872.3 1904 1828.87 1776.79 1945.1 1702.93 2052.97 1775.49 2016.68 1904"/><polygon class="cls-13" points="2074.13 2000.76 2016.68 1904 2052.97 1775.49 2151.99 1746.77 2221.54 1843.53 2177.7 1974.31 2074.13 2000.76"/><polygon class="cls-13" points="1702.21 1981.86 1666.68 1842.77 1733.97 1748.28 1828.87 1776.79 1872.3 1904 1811.82 2000.76 1702.21 1981.86"/><polygon class="cls-13" points="1870.94 2100.19 1811.82 2000.76 1872.3 1904 2016.68 1904 2074.13 2000.76 2012.9 2100.19 1870.94 2100.19"/><path class="cls-15" d="M1734,1748.28l-2.27-100.63-64,35.44c-3,5.28-6,10.65-8.77,16.17a312.87,312.87,0,0,0-30.73,100.22l38.48,43.29Z"/><path class="cls-13" d="M1666.68,1842.77l-38.48-43.29a314,314,0,0,0,74.8,246.57l-.79-64.19Z"/><path class="cls-15" d="M1811.82,2000.76l-109.61-18.9.79,64.19a312,312,0,0,0,95.2,73.72c8.45,4.25,17,8,25.65,11.41l47.09-31Z"/><path class="cls-13" d="M1870.94,2100.19l-47.09,31a312.42,312.42,0,0,0,235.2-2.15l-46.15-28.84Z"/><path class="cls-15" d="M2074.13,2000.76l-61.23,99.43,46.15,28.84a312.35,312.35,0,0,0,116.82-84.33l1.82-70.39Z"/><path class="cls-13" d="M2177.69,1974.31l-1.82,70.39a313.68,313.68,0,0,0,75.92-217.76l-30.25,16.59Z"/><path class="cls-15" d="M2152,1746.77l69.55,96.76,30.25-16.59a314.55,314.55,0,0,0-53.05-161.82L2152,1646.23Z"/><path class="cls-13" d="M2152,1646.23l46.75,18.89a313,313,0,0,0-199.91-132.67l51.73,35.92Z"/><path class="cls-15" d="M1934.77,1599.67l115.79-31.3-51.73-35.92a312.53,312.53,0,0,0-130.93,2.35l-31.13,35.08Z"/><path class="cls-13" d="M1836.77,1569.88l31.13-35.08a312.58,312.58,0,0,0-200.2,148.29l64-35.44Z"/><path class="cls-16" d="M2252.34,1814.92c-40.09,155.49-192.16,271.34-374.09,271.34A411.24,411.24,0,0,1,1699.91,2046a314.48,314.48,0,0,0,238.4,109.58c115.65,0,227.23-63.74,282.6-173.93C2247.78,1928.1,2256.87,1870.63,2252.34,1814.92Z"/><path class="cls-14" d="M2247.28,1779.73a324.4,324.4,0,0,1,5.06,35.19A314.49,314.49,0,0,0,2247.28,1779.73Z"/><path class="cls-14" d="M1692.62,2036.09c2.55,3.22,4.61,6.74,7.29,9.86C1697.23,2042.83,1695.17,2039.31,1692.62,2036.09Z"/><circle class="cls-17" cx="534.41" cy="376.93" r="376.92"/><path class="cls-18" d="M244,608.35c121.22-45.08,233.25-110.08,336.57-187.59,64.77-48.59,132-99.89,183.49-162.77-16.27-21.31-33.74-42-51.79-62.21-.85-1-1.75-1.89-2.61-2.84C682.85,212.79,648.24,226.29,622,235c-67.28,22.36-136.14,11.07-204.69,24.08C328,276,233.59,302.58,164.23,363.67a16.63,16.63,0,0,1-6.51,3.59q.28-11.4,1.27-22.74c79-64.79,189.45-96.25,289-109.35,61.24-8,121,.54,180.58-21,23.79-8.62,48.68-19.54,67.11-36C594.68,75.74,445.19,12.7,307.22,76.29A376.45,376.45,0,0,1,351.5,47.4c117.77-33.19,243.67,4,337.6,86.9q12.35,10.9,24.44,22.47a77.35,77.35,0,0,0,10.48-36c1.77-37.25-31.37-75.16-58.22-95.65A6.45,6.45,0,0,1,664,23a373.94,373.94,0,0,1,66.68,32.12c17.93,28,27.69,61.11,16.53,92-3.53,9.76-9.27,18.61-16.39,26.72A730.68,730.68,0,0,1,783.28,233c19.3-27,35.73-56.31,47.69-88.26,5.84,7.44,11.45,14.87,16.64,22.61-13.31,30.32-30.37,58.24-50.1,84.26a549.56,549.56,0,0,1,51.14,83.77c14.94-13.55,33-23.83,55.87-29.81.81,4.22,1.49,8.47,2.15,12.72-22.8,3.58-39.11,14.84-52,29.91,22.19,49.15,35.25,101.4,34.79,155.46a374.14,374.14,0,0,1-31.38,66.64c13.39-70,2.61-134-22.63-193.34-7.73,14.16-14.45,29.29-21.52,43.62-21,42.46-40.06,86-57.45,130-32.88,83.3-78.89,149.83-151.26,196.63-9.78,1.87-19.62,3.26-29.49,4.34C644.16,713.68,693,655.14,722.29,582.1c18.8-46.89,37.49-93.56,59.29-139.2,14.87-31.11,28.32-60.13,45.84-83.84-13.76-28.65-30.78-56.21-49.86-82.81-52.13,60.67-118,111.08-181.4,158.66-105.73,79.3-220.12,145.18-343.84,192q-6.84-7.74-13.17-15.74A17.45,17.45,0,0,1,244,608.35Z"/><path class="cls-19" d="M901.37,292.53c-.82,11.92-1.94,23.88-3.84,35.91-34.78,219.45-240.86,369.17-460.31,334.4-105.39-16.71-194.38-73.15-254.9-151.38C221.19,613,303.44,697,414.56,734.28c197.36,66.19,411-40.14,477.21-237.5A374.52,374.52,0,0,0,901.37,292.53Z"/><path class="cls-2" d="M2094.45,1909.07c-4.46,9.93-115.57-36.39-111.5-46.46,61.55-152.42,112.14-406.45,126.82-450.46,63.41,24,118.78,41,125.54,100.22C2241.61,1567.75,2159.91,1763.12,2094.45,1909.07Z"/><path class="cls-3" d="M2115.41,1377.21c-46.5-11.34-207.34-54-302.32-82.32-1.38,4.76-38.56,187.3-44.54,278.31,76.38,17.41,217.55,34.6,290.1,48.3C2079.25,1553.93,2107.35,1431,2115.41,1377.21Z"/><path class="cls-2" d="M2050.64,2071.63c19.66-39.19,37.65-85.74,63.89-173.74,19-63.69-23.42-95.06-58.21-100.32-20-3-134.52,22.88-159.73,45.51-16.63,14.92-49.1,46.54-48.28,51.73,4,25,38,16.57,66.67-7.13,9.06-6.19,18.47-10.24,36.09-9.44,6.57,5.4-51.56,49.43-72.48,72.8-16.72,18.66-36.63,84.54-31.26,90.72,13.23,15.21,44.13-34,58.42-52.87,5-6.55,25.11-21.64,39-29.31-6.1,18-24.24,47.46-29.3,59.22-9.75,22.66-37.72,69.29-26.63,82.19,8.66,10.07,33.15-15.7,57.11-51.47,5.81-8.67,28.32-40.25,43.6-60.42,1,.47-21.06,55.09-25.89,61.91-14.32,20.26-36.35,46-23.62,67.4,3.48,5.85,47.31-30.82,60.27-53,5.78-9.87,19.42-31.17,32.93-58.27-4,17.35-15.29,48.32-17.77,54.81-26.28,27.29-35.84,39.12-26.58,55.34C1991.72,2122.35,2041.27,2090.31,2050.64,2071.63Z"/><path class="cls-20" d="M990.15,809c10,106.85,96.05,184.76,169.61,184.43s100.19-83.28,102.53-184.6-55.43-183.44-129-182.85C1032.74,626.81,980.72,708.59,990.15,809Z"/><path class="cls-21" d="M2189.84,550.81c-16.44,398.45-395.71,588-711.68,540.84S973,736.58,1062,359.45c49.4-209.4,258.6-360.64,560.16-313.59C1943.11,95.94,2202.59,241.93,2189.84,550.81Z"/><path class="cls-2" d="M2005.7,445.57c19.26,68-108.71,627.47-185.32,696.11-81.26,72.82-292.3,127.66-441.38,89.88-92.76-23.5-260.76-116.81-300.4-216.06-46.89-117.46,2.72-605.38,31.7-661.88,97.92-190.84,273.77-171.54,502.45-137.44C1826.67,248.08,1955.75,269.13,2005.7,445.57Z"/><path class="cls-2" d="M2095,997.08c-45.2,104.58-161.74,156.6-239.75,133.62s-18.37-345.26,129.61-351.21C2108.07,774.54,2137.46,898.8,2095,997.08Z"/><path class="cls-22" d="M2007.2,978.89c-13.29,45.08-70.87,76-107.87,57.38-14.43-7.29,35.7-163.9,59.93-160.21C2000.23,882.3,2020.48,933.81,2007.2,978.89Z"/><path class="cls-23" d="M1623.69,962c7.55,75.65-119.17,164-223.57,146.66-103.82-17.24-164.68-113.15-155.1-188.21,11.63-40.4,78.61-21.18,181.81-11.83S1619.1,916,1623.69,962Z"/><path class="cls-24" d="M1419,1042c-48.42-4.7-86.69,3.21-112.92,23.13,25.39,21,60.49,42,100.92,45.76,45.54,4.24,92.1-7,120.16-24.61C1517.4,1063.57,1462.3,1046.2,1419,1042Z"/><path class="cls-13" d="M1575.08,924.23c-34.6-14.09-90.83-12.22-142.21-16.88-58-5.25-99.78-16.46-136.75-12,10.82,32.26,57.46,56.83,124.1,63.65C1497.17,966.92,1561.56,956.44,1575.08,924.23Z"/><path class="cls-25" d="M1474,874.83a5.29,5.29,0,0,1-4.51-5.16c-.31-18.68-13-32.62-32.25-35.5s-36,6.93-41.18,24.44a5.3,5.3,0,1,1-10.16-3c6.7-22.42,28.45-35.54,52.9-31.89s40.91,22,41.3,45.82a5.33,5.33,0,0,1-5.22,5.4Z"/><path class="cls-21" d="M1872.44,618.56a16.14,16.14,0,0,1-9.62-6.42c-30.64-43-101.43-69.06-164.81-60.52a16.2,16.2,0,0,1-4.32-32.11c75.62-10.14,157.87,20.92,195.52,73.88a16.2,16.2,0,0,1-16.77,25.17Z"/><path class="cls-21" d="M1122.87,500.56a14.48,14.48,0,0,1-6.6-26.23c47.6-33.33,126.16-34.87,186.8-3.73a14.48,14.48,0,0,1-13.24,25.76C1239,470.19,1171.55,470.9,1132.89,498A14.43,14.43,0,0,1,1122.87,500.56Z"/><path class="cls-26" d="M1318.89,828.74s-141.85,30.4-179.68-61c-46.11-111.33,61.7-177.36,120.92-152.28C1314.93,638.71,1357.53,705.27,1318.89,828.74Z"/><path class="cls-27" d="M1149.62,636.2c30.63-33.24,65.81-39.83,101.31-30,36.29,10,68.84,46.79,74.37,80.49-14.19-39.17-46.39-57.6-66.88-66.27-32.61-13.86-80-2.52-105.81,30.87-22.94,29.71-29.08,78.56-12.16,119.42C1117.52,741.17,1117.7,670.85,1149.62,636.2Z"/><path class="cls-28" d="M1303.53,710.13c6.52,38.48-15.08,77.7-48.24,87.59S1190,784.43,1183.42,746s15.08-77.7,48.25-87.59S1297,671.65,1303.53,710.13Z"/><path class="cls-29" d="M1300.45,698c1.81,10.68-4.18,21.56-13.39,24.3s-18.13-3.68-19.93-14.36,4.18-21.55,13.38-24.3S1298.64,687.37,1300.45,698Z"/><path class="cls-26" d="M1558.11,866.47s151,75.32,224.48,1c89.53-90.53-10.91-188.51-86.54-184.13C1626.05,687.45,1555.43,736.65,1558.11,866.47Z"/><path class="cls-27" d="M1814.67,739.25c-23.69-41.58-61.47-59.36-105.06-61.71-44.56-2.41-93.82,21.84-111.35,52,29.2-32.51,71.93-39.45,98.09-41,41.68-2.46,91.76,23.84,109.91,64,16.13,35.71,6.81,84.07-26,117.3C1816.11,849.36,1839.38,782.58,1814.67,739.25Z"/><path class="cls-28" d="M1763.5,780.81a72.24,72.24,0,1,1-86.55-54.3A72.23,72.23,0,0,1,1763.5,780.81Z"/><path class="cls-29" d="M1759.48,768.56a20,20,0,1,1-24-15.06A20,20,0,0,1,1759.48,768.56Z"/><path class="cls-21" d="M2072.18,554.43c39.31-4,30.67-16.95,69.1-25.19-139.53-52.93-65.09-263.76-242.83-371.58C1604.28,5.44,1363.85,41,1277.65,79.31c-158.85,70.65-242,215.31-267.77,346.23-34.2,117.35-24.94,159.09-90,179.32,64.42,27,68.08,14,91.35-16-4.84,98.48-20.74,141-72.63,167.58,79.66,31.29,118.75-21,132.7-98.29,16.62-92.14,21.55-269.87,38.45-301.36,9.77-18.22,121.65-112.56,150.47-110.16,62.81,5.23,106.51,232.67,328.55,254.14-83.92-58.73-124.88-133.06-163-236.72a347.67,347.67,0,0,1,47.68,44.5c163.33,183.23,326.45,243,484.31,247-44.21,163.32-91.15,371.64,84.38,399.21-15.38-24.41-47.76-141.65,9.52-222.8C2071.36,747.61,2063.51,664.28,2072.18,554.43Z"/><path class="cls-2" d="M676.68,928.28c-21.38-68.08-59.36-210.19-75.83-205.53C552.2,736.52,577.4,838.62,598.34,903c2.3,7.06,4.4,13.42,6.41,19.43-57.39,34.16-113.63,88.16-147,100.4,36.42,79.57,68,111.29,92.38,121.58,44.53,18.81,105.06,8.33,138.78-39.81,25-35.78,35-67,35.21-143.89C712.25,953.37,690.28,944.05,676.68,928.28Z"/><path class="cls-30" d="M623.79,1077.9c-60.21,42.48-125.27,10.48-146.19-44,13.89-4.87,97.14-87.75,111-159.18,50.83,4.13,66.74,110,84,106.12C638.26,997.11,613.73,1034.19,623.79,1077.9Z"/><path class="cls-2" d="M629.87,926.17c-13.36-35.53-38.78-58.85-56.78-52.08-16.21,6.1-20.74,34.54-11.74,66.1-17.21-21.74-38.58-32.75-52.91-25.08-15.43,8.26-17.52,35.25-6.46,64-17.56-10.27-34.8-12.46-44.38-3.64-14.16,13-6.27,44.62,17.62,70.61s54.73,36.52,68.89,23.5c7.76-7.13,8.69-19.92,4.19-34.24,9.23,4.38,18.11,5.28,25.23,1.47,13.29-7.1,16.68-28.11,10.34-52.15,12.27,14.86,26.39,22.35,37.61,18.12C639.48,996,643.23,961.7,629.87,926.17Z"/><path class="cls-31" d="M598.68,942.64c-4.2,21.1,1.55,53.49,34.67,57.53,30.65,3.74,72.8-12.25,77-33.36s-18.93-43.49-51.65-50S602.89,921.53,598.68,942.64Z"/><path class="cls-2" d="M598.68,942.64c-4,20.07,20.78,41.92,55.34,48.8s65.82-3.81,69.81-23.88-20.77-41.93-55.33-48.81S602.68,922.56,598.68,942.64Z"/><path class="cls-1" d="M106.36,483.44C4,482.29,1.12,463.1.13,457.18a3.18,3.18,0,0,1,2.65-3.61,3.27,3.27,0,0,1,3.65,2.62c.67,4.38,9.93,18.92,100,21a3.14,3.14,0,0,1,3.08,3.21A3.09,3.09,0,0,1,106.36,483.44Z"/><path class="cls-1" d="M641.28,427.32a3.4,3.4,0,0,1-3.36-2.55,3.16,3.16,0,0,1,2.53-3.7c135.07-24.82,252.9-54.2,323.34-80.69,64.13-24.07,69.32-38,68.52-42.8A3.18,3.18,0,0,1,1035,294a3.27,3.27,0,0,1,3.65,2.62c2.22,14.29-21.55,30.56-72.6,49.72C895.21,372.89,776.72,402.44,641.28,427.32Z"/></svg>