<svg id="Layer_5" data-name="Layer 5" xmlns="http://www.w3.org/2000/svg" viewBox="0 0 2959.64 2964.16"><defs><style>.cls-1{fill:#ffd45d;}.cls-2{fill:#ffc19f;}.cls-3{fill:#f95006;}.cls-4{fill:#a02e07;}.cls-5{fill:#7f0404;opacity:0.19;}.cls-6{fill:#e0956c;}.cls-7{fill:#000e35;}.cls-8{fill:#701608;}.cls-9{fill:#dd6b5b;}.cls-10,.cls-21{fill:#fff;}.cls-11{fill:#c4735b;}.cls-12{fill:#4c0b00;}.cls-13{fill:#f9feff;}.cls-14{fill:#773220;}.cls-15{fill:#63190d;}.cls-16{fill:#fefffe;}.cls-17{fill:#afafaf;}.cls-18{fill:#f2f2f2;}.cls-19{fill:#d6d6d6;}.cls-20{fill:#ff6a76;}.cls-21{opacity:0.28;}</style></defs><path class="cls-1" d="M2695.27,2411.88H264.37A70,70,0,0,0,201.06,2452L6.76,2864.32c-21.87,46.43,12,99.84,63.33,99.84H2889.55c51.34,0,85.21-53.41,63.33-99.84L2758.59,2452A70,70,0,0,0,2695.27,2411.88Z"/><path class="cls-2" d="M843.17,2267.78c0,54.07-29.73,97.9-66.4,97.9s-100.86-45.91-100.86-100C699,2223.07,787.38,2006.55,824,2006.55S843.17,2213.7,843.17,2267.78Z"/><path class="cls-2" d="M2081.82,2267.78c0,54.07,29.73,97.9,66.4,97.9s100.85-45.91,100.85-100c-23.08-42.64-111.45-259.16-148.12-259.16S2081.82,2213.7,2081.82,2267.78Z"/><path class="cls-3" d="M2273.18,2201.66c-71.4,42.67-281.88,132.35-361.86,156.3-20.92-102.62-50.48-264.61-68.73-355.83-7.37-14.26-160-235.73-160-241.06,94.07,5.94,264.37,39.43,294.61,55.82C2027.4,1852.35,2188.52,2076.13,2273.18,2201.66Z"/><path class="cls-3" d="M1923.72,2675.29c-280.75,110.83-677.68,125.09-952.19-.88,0,0,64.38-694.94,102.58-886.15,206-57.19,591.41-35.4,780.05-3.13C1878.06,1998.47,1934.09,2628.54,1923.72,2675.29Z"/><path class="cls-3" d="M651.81,2201.66c71.4,42.67,281.88,132.35,361.87,156.3,20.91-102.62,50.46-264.61,68.73-355.83,7.36-14.26,160-235.73,160-241.06-94.07,5.94-264.37,39.43-294.61,55.82C897.59,1852.35,736.46,2076.13,651.81,2201.66Z"/><path class="cls-4" d="M1726.05,1768.28c0-1.73-.54-1.61-.6-3.33-154.6-14.86-354.43-20.59-515.79-1.07,0,1.5-.57,2.9-.57,4.4,0,111.34,115.73,201.6,258.49,201.6S1726.05,1879.62,1726.05,1768.28Z"/><path class="cls-2" d="M1289,1537.69l5.16,279.09c1.12,60,78.29,107.26,172.38,105.52s169.44-51.82,168.34-111.83l-5.17-279.08Z"/><path class="cls-5" d="M1289.91,1585.08l3,163.82c46.41,40.43,114.44,66.63,191.09,66.8,56.54.13,108.06-14.1,150.28-37.48L1631,1598C1518.75,1588.87,1392.59,1584.73,1289.91,1585.08Z"/><path class="cls-2" d="M763.77,908.54c120.88-14.88,234.43,103,253.51,262.38s-6,294.56-126.94,309-280-91.45-320.7-257.16C531.44,1067,598.54,928.88,763.77,908.54Z"/><path class="cls-6" d="M720.17,1285.26c23.85,66.22,90.52,102.87,148.93,81.86s86.42-91.74,62.57-158-90.49-102.86-148.88-81.86S696.37,1219,720.17,1285.26Z"/><path class="cls-2" d="M2180.2,908.54c-120.89-14.88-234.43,103-253.51,262.38s6,294.56,126.92,309,280-91.45,320.71-257.16C2412.52,1067,2345.42,928.88,2180.2,908.54Z"/><path class="cls-6" d="M2223.79,1285.26c-23.85,66.22-90.52,102.87-148.93,81.86s-86.42-91.74-62.57-158,90.49-102.86,148.87-81.86S2247.6,1219,2223.79,1285.26Z"/><path class="cls-7" d="M655.78,608.53c-50.7,561.15,357.21,924.53,820.07,915.53S2312,1099.72,2254.48,555.37c-31.93-302.25-345.63-566.51-787.76-555C1003.93,12.41,691.83,209.46,655.78,608.53Z"/><path class="cls-2" d="M2129.94,529.8c-100.5-279.23-342.72-283.22-659.82-283.22s-559.32,4-659.82,283.22c-30.3,84.23-4.21,778.8,82.57,934.52,73.35,131.57,355.07,260.89,551.54,260.89h51.42c196.46,0,478.19-129.32,551.54-260.89C2134.15,1308.6,2160.23,614,2129.94,529.8Z"/><path class="cls-8" d="M1739.34,1331.65c-10.66-55.59-96.1-41.18-235.65-42.12-7.3,0-35.69,0-43,0-139.54.94-225-13.47-235.63,42.12-20.54,107.08,114.18,224,255.91,224.48h2.45C1625.15,1555.69,1759.86,1438.73,1739.34,1331.65Z"/><path class="cls-9" d="M1483.4,1558.35h-2.46c-46-.16-93.62-13.2-138-37.58l-2.7-1.44,2.29-2c36.81-33,86.43-51.22,139.67-51.22s102.77,18.21,139.67,51.22l2.29,2-2.7,1.44C1577,1545.15,1529.27,1558.19,1483.4,1558.35Z"/><path class="cls-10" d="M1482.21,1360.94c-97.52,0-178.7-30.22-188.86-70.34l-.59-2.46h378.9l-.59,2.46C1660.83,1330.72,1579.64,1360.94,1482.21,1360.94Z"/><path class="cls-11" d="M1410.57,1221.53a7.49,7.49,0,0,0,7.25-6.4c3.8-26.06,24-43.26,51.5-43.79,27.64-.54,49,16.18,53.13,41.59a7.47,7.47,0,1,0,14.75-2.41c-5.31-32.55-33.34-54.82-68.18-54.14-34.63.68-61.16,23.42-66,56.58a7.48,7.48,0,0,0,6.31,8.49Z"/><path class="cls-7" d="M529.48,887.76c96.15-34.07,156.14-96.19,161.62-252.92-55.48-11.88-81.9-28.12-135.42-45.91C763.54,536.35,733,239.55,1004.35,115.47c444.87-168.29,850.49-44.59,967.35,23.39,215.35,125.28,241.89,294.1,257.42,483.36,29.74,171.42,68,222.17,157.59,261.18-96.39,27.91-153.42,2.89-186.07-30.42,9.55,107.91,59.7,142.07,115.14,189.86-150.46,7.66-234.24-118-261.32-226.56-30.08-120.57,16.91-253.42-2.09-300.65-11-27.34-110.07-185.18-151.62-186.38-90.55-2.63-190,312-510.54,306.93,129.39-69.66,200-168.23,271.21-308.74a499,499,0,0,0-75.33,55.32c-263.07,233-544.37,266.48-770.47,247,37.38,183.7,92.23,376.23-193.48,464,25.94-32.07,63.77-128.41,69.32-204.54C660.84,908.15,604.78,924.77,529.48,887.76Z"/><path class="cls-12" d="M947.23,758.43a23.43,23.43,0,0,1-16-40.72c69.47-63.39,195.25-82.15,299-44.76a23.44,23.44,0,0,1-15.91,44.1c-87-31.47-195.13-16.33-251.54,35.25A23.35,23.35,0,0,1,947.23,758.43Z"/><path class="cls-12" d="M1986.45,758.43a23.43,23.43,0,0,0,16-40.72c-69.47-63.39-195.25-82.15-299-44.76a23.44,23.44,0,0,0,15.91,44.1c87-31.47,195.13-16.33,251.54,35.25A23.33,23.33,0,0,0,1986.45,758.43Z"/><path class="cls-13" d="M1638.73,1170.59s223.24,71.2,308.23-46.38c103.57-143.27-55.11-256.33-158-234.19C1693.82,910.49,1607.41,993,1638.73,1170.59Z"/><path class="cls-14" d="M1963.67,941.4c-41.37-52-97-68.35-157.3-62.3-61.66,6.18-124.09,49.95-141.71,95.07,33.13-50.84,90.29-69.45,125.87-77.1,56.66-12.26,131,13.16,164.43,64.37,29.73,45.55,27.24,113.91-10.77,166.49C1989.09,1092.18,2006.79,995.6,1963.67,941.4Z"/><path class="cls-15" d="M1689.47,1042.53a100.32,100.32,0,1,0,130.29-56.14A100.33,100.33,0,0,0,1689.47,1042.53Z"/><path class="cls-16" d="M1697.58,1026.58a27.83,27.83,0,1,0,36.15-15.58A27.84,27.84,0,0,0,1697.58,1026.58Z"/><path class="cls-13" d="M1301.61,1171.66S1078.42,1243,993.34,1125.5c-103.66-143.2,54.94-256.37,157.81-234.31C1246.33,911.6,1332.81,994.08,1301.61,1171.66Z"/><path class="cls-14" d="M976.51,942.7c41.34-52,97-68.42,157.25-62.41,61.67,6.14,124.12,49.85,141.79,95-33.17-50.82-90.34-69.39-125.92-77-56.67-12.21-131,13.26-164.39,64.49-29.71,45.58-27.17,113.92,10.89,166.48C951.2,1093.49,933.43,996.92,976.51,942.7Z"/><path class="cls-15" d="M1069.21,1044.86A100.31,100.31,0,1,0,1199.5,988.7,100.32,100.32,0,0,0,1069.21,1044.86Z"/><path class="cls-16" d="M1077.32,1028.9a27.83,27.83,0,1,0,36.15-15.58A27.84,27.84,0,0,0,1077.32,1028.9Z"/><path class="cls-2" d="M1637.26,2316.3c-15.39,1.22-13,173.56,2.35,174.66,247.58,17.68,487.14,33,555.5,12.1,104.35-31.85,96.32-134,54-237.35C2183.23,2270.09,1852.78,2299.14,1637.26,2316.3Z"/><path class="cls-2" d="M1287.73,2316.3c15.39,1.22,13,173.56-2.35,174.66-247.59,17.68-487.14,33-555.5,12.1-104.34-31.85-96.32-134-54-237.35C741.76,2270.09,1072.21,2299.14,1287.73,2316.3Z"/><path class="cls-17" d="M2192.43,2778.45H767.21a13.38,13.38,0,0,1-13.38-13.39v-34.74a13.38,13.38,0,0,1,13.38-13.39H2192.43a13.38,13.38,0,0,1,13.38,13.39v34.74A13.38,13.38,0,0,1,2192.43,2778.45Z"/><path class="cls-18" d="M2151.89,2709.33H807.75A73.74,73.74,0,0,1,734,2635.59V1870.27a73.74,73.74,0,0,1,73.73-73.74H2151.89a73.74,73.74,0,0,1,73.73,73.74v765.32A73.74,73.74,0,0,1,2151.89,2709.33Z"/><rect class="cls-19" x="734.02" y="1815.7" width="1491.6" height="912.8" rx="73.73"/><path class="cls-20" d="M1330.08,2272A149.82,149.82,0,1,0,1475,2117.38,149.83,149.83,0,0,0,1330.08,2272Z"/><path class="cls-21" d="M796.27,2726.17c3.89.64,7.41,2.33,11.48,2.33h160L1484,1815.7H1311.48ZM2194.72,1831l-507.84,897.46h60.73l477.17-843.25C2223.44,1862.66,2211.87,1843.63,2194.72,1831ZM1150.55,1815.7,734,2551.81v103c0,4.36,1.76,8.14,2.48,12.29l481.74-851.35Z"/></svg>